<svg width="430.113" height="430.114" xmlns="http://www.w3.org/2000/svg" xmlns:svg="http://www.w3.org/2000/svg">
 <g>
  <title>Layer 1</title>
  <g stroke="null" id="svg_1">
   <path stroke="null" fill="#d9d9d9" d="m172.65134,112.11414c0,8.733 0,47.71204 0,47.71204l-34.95534,0l0,58.34242l34.95534,0l0,173.37326l71.80574,0l0,-173.36842l48.18495,0c0,0 4.51276,-27.97475 6.70026,-58.56239c-6.27161,0 -54.61369,0 -54.61369,0s0,-33.94178 0,-39.89107c0,-5.9622 7.82898,-13.98215 15.56697,-13.98215c7.72345,0 24.02438,0 39.12244,0c0,-7.94341 0,-35.38963 0,-60.7378c-20.1554,0 -43.08572,0 -53.19322,0c-75.34837,-0.00403 -73.57344,58.39643 -73.57344,67.11412z" id="Facebook"/>
  </g>
 </g>
</svg>